<?xml version="1.0" encoding="UTF-8" standalone="no"?>
<svg
   version="1.1"
   id="Слой_1"
   x="0px"
   y="0px"
   width="1920px"
   height="7815px"
   viewBox="0 0 1920 7815"
   enable-background="new 0 0 1920 7815"
   xml:space="preserve"
   sodipodi:docname="bg.svg"
   inkscape:version="1.3 (0e150ed6c4, 2023-07-21)"
   xmlns:inkscape="http://www.inkscape.org/namespaces/inkscape"
   xmlns:sodipodi="http://sodipodi.sourceforge.net/DTD/sodipodi-0.dtd"
   xmlns="http://www.w3.org/2000/svg"
   xmlns:svg="http://www.w3.org/2000/svg"><defs
   id="defs1" /><sodipodi:namedview
   id="namedview1"
   pagecolor="#ffffff"
   bordercolor="#000000"
   borderopacity="0.25"
   inkscape:showpageshadow="2"
   inkscape:pageopacity="0.0"
   inkscape:pagecheckerboard="0"
   inkscape:deskcolor="#d1d1d1"
   inkscape:zoom="0.23275752"
   inkscape:cx="958.07861"
   inkscape:cy="3905.3518"
   inkscape:window-width="3840"
   inkscape:window-height="2054"
   inkscape:window-x="-11"
   inkscape:window-y="-11"
   inkscape:window-maximized="1"
   inkscape:current-layer="Слой_1" />&#10;<path
   fill-rule="evenodd"
   clip-rule="evenodd"
   fill="#0C0920"
   d="M1921.5,4300.467v473.405  c-162.579,230.655-544.128,340.282-697.136,218.199c-182.555-145.657-119.362-665.173,214.056-803.127  C1632.009,4108.846,1820.035,4168.66,1921.5,4300.467z M487.071,3490.763c-34.127,178.568,237.009,531.04,462.094,508.468  c223.201-22.384,282.977-320.481,102.789-537.577C863.372,3234.443,521.198,3312.194,487.071,3490.763z M1609.5,1662  c-344-76-348,132-620,384s-424-156-616-188c-136.265-22.711-292.673,89.565-372,156.665v777.347  c69.248-283.395,198.511-706.969,364-770.013c252-96,15.559,416.727,332,520c341.981,111.609,695.871-826.354,932-408  c102.155,180.99,211.193,272.222,292,318.083v-995.825C1853.279,1589.044,1752.954,1693.693,1609.5,1662z M1019.25,1603.5  c133.515,0,322.823-347.536,235.75-448.75c-87-101.129-435.5-101.129-474.5,63C749.634,1347.647,885.735,1603.5,1019.25,1603.5z   M1921.5,5871.988c-83.886-58.922-197.627-118.051-300-100.989c-192,32-344,440.001-616,188.001c-272-252.001-276-460.001-620-384  c-206.185,45.553-323.273-190.545-384-387.031v1210.162c76.894-26.717,226.668-107.817,364-351.132  c236.128-418.353,590.018,519.608,932,408.001c316.44-103.273,80-616.001,332-520.001c119.021,45.342,219.305,277.175,292,509.222  V5871.988z M1.5,1112.393c110.247,7.67,273.673-75.216,302.154-202.144c35.419-157.852-112.772-278.476-268.309-214.122  c-11.999,4.965-23.275,10.949-33.845,17.79V1112.393z M1875.111,2876.006c-156.527,91.109-285.736,365.587-154.168,525.217  c37.736,45.785,115.518,56.674,200.557,37.19v-585.092C1906.109,2859.459,1890.613,2866.983,1875.111,2876.006z M793.155,6829.633  c-234.6-204.436-583.626-210.758-791.655-84.437v615.795c154.791,145.936,396.095,253.955,655.202,221.097  C951.344,7544.724,1107.091,7103.201,793.155,6829.633z"
   id="path1" />&#10;<path
   style="fill:#800000;stroke-width:4.29632"
   d="m 494.07642,7582.8757 c -3.54447,-0.701 -23.84456,-3.6249 -45.11133,-6.4974 C 309.14868,7557.493 158.24687,7488.6058 37.564444,7388.5727 l -33.3247803,-27.6228 1.1024056,-307.8664 1.1024057,-307.8663 25.7779,-13.8245 c 141.377025,-75.8193 345.937335,-88.659 519.586015,-32.6132 203.52206,65.6876 350.85126,207.5632 398.44771,383.6985 8.44282,31.2436 9.85648,46.7587 9.78628,107.4079 -0.063,54.3837 -1.85975,77.3914 -7.71696,98.8153 -45.94103,168.0383 -154.42161,271.8941 -304.96657,291.9652 -29.903,3.9868 -136.52538,5.5235 -153.28243,2.2093 z"
   id="path2" /><path
   style="fill:#800000;stroke-width:4.29632"
   d="m 1210.5447,6459.3711 c -63.7844,-10.7402 -121.4828,-42.1762 -200.9103,-109.4625 -20.08527,-17.015 -96.45229,-92.3496 -169.70449,-167.4099 -135.16964,-138.5063 -175.92459,-176.1508 -224.93014,-207.763 -60.06208,-38.7444 -114.94387,-47.4197 -160.13017,-25.3121 -31.74992,15.5338 -65.39635,51.6208 -95.04416,101.9384 -100.4592,170.4971 -212.41734,282.3106 -335.121619,334.6888 l -20.4075043,8.7112 0.1739888,-593.8131 0.1739887,-593.8131 12.1552988,34.3705 c 63.282134,178.9377 147.958347,292.3196 244.646927,327.5835 42.79829,15.6092 79.2723,16.9436 138.11093,5.0526 37.99555,-7.6786 63.79682,-10.0036 111.70423,-10.0655 57.05655,-0.074 65.14535,0.9157 96.16433,11.7626 42.34372,14.8071 84.03582,41.5365 119.65869,76.7149 15.13571,14.9469 61.00697,67.7764 101.93613,117.3989 86.83552,105.2793 182.38927,202.9836 225.72487,230.8052 92.8297,59.5969 176.0998,54.7581 274.9643,-15.9777 14.1779,-10.144 56.1011,-45.5026 93.1629,-78.5747 129.223,-115.3124 162.5388,-134.1047 237.746,-134.1047 63.1363,0 132.8124,23.8357 215.5481,73.7375 l 44.2865,26.7112 -0.2222,277.3698 -0.2223,277.3698 -22.77,-64.4447 c -36.5069,-103.3236 -48.7947,-133.3993 -84.255,-206.2232 -77.2684,-158.6843 -145.2547,-227.9249 -228.8468,-233.0689 -27.3037,-1.6802 -32.7819,-0.7014 -45.7401,8.1721 -29.8163,20.4177 -38.4629,50.0076 -51.9607,177.8147 -4.7313,44.7989 -10.5263,92.1716 -12.878,105.2725 -20.4244,113.7852 -66.9978,186.3395 -143.2025,223.0881 -29.521,14.2361 -78.2636,27.2306 -95.1649,25.3703 -2.3629,-0.2601 -13.4538,-2.0148 -24.6463,-3.8995 z"
   id="path3" /><path
   style="fill:#800000;stroke-width:4.29632"
   d="m 1347.8538,5037.1643 c -87.9326,-12.1285 -146.9663,-54.0575 -183.2395,-130.147 -69.6323,-146.066 -41.1515,-376.3884 66.5603,-538.2694 64.8907,-97.5246 154.6614,-164.1821 266.0918,-197.5813 35.0968,-10.5197 45.4101,-11.624 111.7042,-11.9609 83.5534,-0.4246 109.1069,4.4484 169.0322,32.2345 45.2305,20.9723 81.3433,46.7553 115.5988,82.5324 l 26.8519,28.0448 -4e-4,235.5952 -5e-4,235.5952 -29.8465,35.0479 c -110.1265,129.3183 -300.3162,222.598 -470.6734,230.8447 -23.6298,1.1439 -56.0653,0.2727 -72.0789,-1.9361 z"
   id="path4" /><path
   style="fill:#800000;stroke-width:4.29632"
   d="m 867.94454,3988.8372 c -96.31959,-25.2154 -191.94952,-98.7374 -279.02983,-214.523 -35.8886,-47.719 -77.72932,-129.4337 -91.29423,-178.2972 -13.09853,-47.1834 -12.92312,-98.2857 0.45488,-132.5205 21.60497,-55.288 88.82399,-107.0058 166.62189,-128.1976 47.74023,-13.0042 135.3082,-12.9287 183.82529,0.1585 103.55416,27.9331 186.22916,92.79 246.84436,193.6442 53.4859,88.9923 73.3394,205.6132 49.7903,292.4721 -35.1338,129.5878 -151.93158,200.0608 -277.21266,167.2635 z"
   id="path5" /><path
   style="fill:#800000;stroke-width:4.29632"
   d="M 4.6377359,2388.4781 4.2963167,2014.4246 41.889087,1986.1365 c 108.123093,-81.3612 198.848663,-122.6537 279.012743,-126.9888 82.24524,-4.4475 123.25727,17.7095 256.95276,138.8206 116.05808,105.1338 173.27582,134.7629 250.67517,129.8073 91.29007,-5.845 167.24873,-66.78 336.67634,-270.0861 46.4908,-55.787 97.6898,-113.4987 113.7755,-128.2483 36.5838,-33.545 75.7178,-56.7855 117.3213,-69.6736 43.3556,-13.4309 126.7015,-13.3585 193.3343,0.1679 75.2003,15.2656 116.4997,11.4599 170.1043,-15.675 49.5253,-25.0699 100.2416,-77.6883 141.55,-146.8584 l 19.162,-32.0866 v 490.7184 c 0,269.8951 -1.134,490.7184 -2.52,490.7184 -10.6357,0 -78.2291,-54.755 -124.5262,-100.8742 -59.8803,-59.6502 -90.2025,-97.6865 -133.2932,-167.2032 -14.798,-23.873 -33.1946,-53.5151 -40.8814,-65.8712 -19.6493,-31.5853 -53.1485,-63.8883 -79.7521,-76.9042 -19.9353,-9.7534 -26.8936,-10.8953 -58.2061,-9.5514 -71.4097,3.0648 -129.8045,42.9269 -263.2661,179.7135 -209.9619,215.193 -254.6335,256.3256 -324.42003,298.7186 -34.21647,20.7854 -87.6822,39.8681 -121.04164,43.2014 -53.9317,5.3889 -118.68377,-18.9992 -163.21225,-61.4723 -61.71728,-58.8682 -84.0424,-124.6981 -102.36151,-301.8323 -12.14414,-117.4266 -20.9683,-145.8577 -51.79571,-166.8844 -12.86102,-8.7722 -18.55643,-9.8406 -43.37939,-8.1373 -98.81658,6.7809 -184.41873,110.8912 -274.01069,333.2549 -32.29778,80.1619 -65.285853,178.9881 -94.177693,282.1393 -11.913314,42.5335 -25.478767,90.8671 -30.145451,107.4079 l -8.4848808,30.0742 z"
   id="path6" /><path
   style="fill:#800000;stroke-width:4.29632"
   d="m 983.18708,1594.3903 c -28.436,-10.1576 -52.63441,-27.1209 -81.25535,-56.9606 -61.8251,-64.4578 -105.39377,-150.7158 -119.98048,-237.5393 -17.09077,-101.7281 29.34987,-165.5299 144.76777,-198.887 29.23158,-8.4483 43.37687,-9.6842 110.84148,-9.6842 67.4646,0 81.6098,1.2359 110.8414,9.6842 74.0441,21.3996 114.0405,53.0288 123.2688,97.4808 17.5767,84.6665 -50.1499,244.7362 -144.0331,340.4178 -53.2549,54.275 -98.8332,71.7832 -144.45052,55.4883 z"
   id="path7" /><path
   style="fill:#800000;stroke-width:4.29632"
   d="m 1785.1196,3437.7349 c -38.547,-12.7446 -62.479,-33.0343 -85.0543,-72.1095 -51.7426,-89.5604 -35.1425,-233.1584 40.4153,-349.6111 47.4295,-73.1001 120.9251,-139.7792 170.3062,-154.5108 l 9.6667,-2.8838 v 287.8892 c 0,225.667 -1.1607,288.6105 -5.3703,291.2269 -9.8441,6.118 -111.4587,6.1173 -129.9636,-9e-4 z"
   id="path8" /><path
   style="fill:#800000;stroke-width:4.29632"
   d="M 4.2963167,914.09183 V 716.32496 l 9.6667123,-6.275 c 20.175629,-13.0967 62.419441,-25.70177 93.444891,-27.88288 78.07896,-5.48901 145.50739,32.55337 179.43686,101.2363 15.72852,31.83901 16.04554,33.46104 16.04554,82.09641 0,46.60822 -0.807,51.30839 -13.31368,77.54172 -7.32252,15.35933 -21.39881,38.09458 -31.28066,50.52278 -47.6848,59.97231 -141.69282,108.80101 -222.644615,115.64391 l -31.3550483,2.6505 z"
   id="path9" /></svg>
