<svg version="1.1" id="Layer_1" xmlns="http://www.w3.org/2000/svg" xmlns:xlink="http://www.w3.org/1999/xlink" x="0px" y="0px"
	 width="100%" viewBox="0 0 4000 4000" enable-background="new 0 0 4000 4000" xml:space="preserve">
<path fill="#000000" opacity="1.000000" stroke="none" 
	d="
M2316.000000,4002.000000 
	C1544.000000,4002.000000 773.000000,4002.000000 2.000000,4002.000000 
	C2.000000,2668.666748 2.000000,1335.333374 2.000000,2.000000 
	C1335.333374,2.000000 2668.666748,2.000000 4002.000000,2.000000 
	C4002.000000,1335.333374 4002.000000,2668.666748 4002.000000,4002.000000 
	C3440.333252,4002.000000 2878.666748,4002.000000 2316.000000,4002.000000 
M2821.000000,2423.990234 
	C3048.206299,2423.990234 3275.412598,2423.990234 3503.280273,2423.990234 
	C3503.280273,2142.184814 3503.280273,1861.768677 3503.280273,1580.702148 
	C2503.504395,1580.702148 1504.438477,1580.702148 504.708191,1580.702148 
	C504.708191,1861.815674 504.708191,2142.231934 504.708191,2423.990234 
	C1276.612793,2423.990234 2047.806396,2423.990234 2821.000000,2423.990234 
z"/>
<path fill="#0F0F0F" opacity="1.000000" stroke="none" 
	d="
M2820.000000,2423.990234 
	C2047.806396,2423.990234 1276.612793,2423.990234 504.708191,2423.990234 
	C504.708191,2142.231934 504.708191,1861.815674 504.708191,1580.702148 
	C1504.438477,1580.702148 2503.504395,1580.702148 3503.280273,1580.702148 
	C3503.280273,1861.768677 3503.280273,2142.184814 3503.280273,2423.990234 
	C3275.412598,2423.990234 3048.206299,2423.990234 2820.000000,2423.990234 
M1776.141479,1875.000000 
	C1776.141479,1986.320190 1776.139771,2097.640381 1776.149414,2208.960449 
	C1776.149780,2212.290771 1776.116821,2215.632568 1776.370972,2218.948242 
	C1776.633667,2222.376709 1778.660645,2224.627686 1782.123901,2224.703857 
	C1789.438232,2224.865234 1796.764771,2224.850342 1804.076172,2224.605469 
	C1807.600098,2224.487061 1809.345093,2222.036865 1809.538086,2218.615479 
	C1809.687988,2215.956543 1809.678467,2213.286865 1809.675415,2210.621826 
	C1809.637329,2177.625977 1809.602051,2144.629883 1809.537354,2111.634033 
	C1809.388550,2035.643433 1809.217285,1959.652710 1809.089478,1883.662109 
	C1809.083862,1880.356201 1809.421875,1877.049683 1809.599731,1873.743530 
	C1812.936768,1876.611328 1814.371704,1879.480835 1815.545776,1882.453369 
	C1849.038452,1967.246704 1882.498657,2052.052979 1915.979248,2136.851074 
	C1926.487427,2163.466064 1937.196411,2190.003174 1947.448242,2216.716309 
	C1949.722778,2222.643066 1953.150269,2225.271240 1959.297363,2225.067871 
	C1964.291382,2224.902344 1969.300293,2225.177246 1974.293213,2224.997803 
	C1982.792114,2224.692627 1983.757324,2223.594727 1984.017700,2214.797119 
	C1984.057129,2213.465088 1984.024536,2212.131104 1984.024536,2210.797852 
	C1984.024414,2073.147949 1984.024292,1935.497925 1984.022949,1797.847900 
	C1984.022949,1795.848145 1984.146606,1793.837158 1983.980469,1791.850708 
	C1983.475342,1785.809326 1982.167603,1784.504517 1975.914673,1784.190430 
	C1971.925049,1783.989990 1967.917480,1784.129883 1963.917969,1784.144897 
	C1951.714355,1784.190308 1951.414185,1784.416992 1951.385376,1796.292847 
	C1951.331177,1818.623291 1951.367920,1840.954102 1951.367798,1863.284668 
	C1951.367554,1950.274048 1951.384766,2037.263550 1951.308228,2124.252930 
	C1951.304932,2127.913574 1952.437988,2131.930420 1949.138428,2136.752441 
	C1947.124268,2132.003906 1945.550659,2128.508301 1944.143799,2124.946533 
	C1901.849487,2017.872681 1859.637085,1910.766602 1817.239136,1803.734009 
	C1808.081177,1780.614746 1812.523193,1784.428223 1788.147339,1784.178833 
	C1776.949585,1784.064209 1776.185547,1784.903687 1776.161499,1796.009399 
	C1776.105835,1821.672852 1776.142334,1847.336426 1776.141479,1875.000000 
M2342.382080,2219.537842 
	C2343.209961,2223.550537 2346.159180,2224.765869 2349.740234,2224.917480 
	C2353.398682,2225.072266 2357.065918,2225.047363 2360.729492,2225.043945 
	C2375.745117,2225.030518 2375.860352,2224.924072 2375.861816,2210.147461 
	C2375.868164,2149.514404 2375.858398,2088.881348 2375.880371,2028.248291 
	C2375.881592,2024.744995 2376.110596,2021.241821 2376.258057,2017.050903 
	C2396.107910,2017.050903 2414.730225,2017.020020 2433.352295,2017.064087 
	C2442.311523,2017.085205 2442.373291,2017.127808 2445.285889,2025.567017 
	C2458.197266,2062.977051 2471.071045,2100.400146 2483.956543,2137.819336 
	C2492.835449,2163.602539 2501.680420,2189.397949 2510.623047,2215.159424 
	C2511.900146,2218.837646 2512.566895,2223.573975 2517.403320,2224.192383 
	C2526.830811,2225.397949 2536.344482,2226.245361 2547.135254,2223.060547 
	C2535.432861,2187.465820 2522.595947,2153.340820 2510.448730,2118.983398 
	C2498.188965,2084.308838 2485.874512,2049.654053 2473.720215,2015.374146 
	C2475.102783,2014.197754 2475.542236,2013.641846 2476.116211,2013.371094 
	C2477.614502,2012.664185 2479.153076,2012.032227 2480.708008,2011.457764 
	C2499.162109,2004.639404 2513.489502,1992.687256 2524.213135,1976.328613 
	C2534.810791,1960.161987 2540.640137,1942.338013 2542.789795,1923.164062 
	C2545.839600,1895.960693 2544.631348,1869.122314 2533.701660,1843.732788 
	C2517.950195,1807.142212 2491.527344,1784.189331 2449.978760,1783.346924 
	C2418.010498,1782.698730 2386.021973,1782.994873 2354.042480,1782.982300 
	C2342.929199,1782.978027 2342.150879,1783.820923 2342.150635,1795.002319 
	C2342.148438,1935.923950 2342.176025,2076.845703 2342.382080,2219.537842 
M1196.148193,1883.000000 
	C1196.148193,1991.664429 1196.147583,2100.328857 1196.151855,2208.993408 
	C1196.151978,2211.992676 1196.139282,2214.994141 1196.245972,2217.990723 
	C1196.402710,2222.394287 1198.812622,2224.746338 1203.158691,2224.866211 
	C1208.820312,2225.022461 1214.494629,2225.174316 1220.150757,2224.972900 
	C1228.477783,2224.676270 1229.593628,2223.358643 1229.839844,2214.631592 
	C1229.905640,2212.300049 1229.851807,2209.965088 1229.851807,2207.631836 
	C1229.851929,2148.633057 1229.851807,2089.634521 1229.851807,2030.635742 
	C1229.851807,2027.093506 1229.851807,2023.551270 1229.851807,2020.247070 
	C1242.648804,2018.131104 1351.537109,2018.671143 1359.375610,2020.921021 
	C1359.375610,2024.256470 1359.375610,2027.867065 1359.375610,2031.477539 
	C1359.375610,2090.809570 1359.373535,2150.141846 1359.381836,2209.473877 
	C1359.382202,2212.472168 1359.456421,2215.471191 1359.525391,2218.468994 
	C1359.618530,2222.507324 1361.821777,2224.612061 1365.738037,2224.805908 
	C1369.728394,2225.003662 1373.730347,2225.021484 1377.727295,2225.021729 
	C1392.603516,2225.022461 1392.621216,2225.007568 1392.621704,2210.019043 
	C1392.626099,2073.021973 1392.624146,1936.024902 1392.622314,1799.027832 
	C1392.622314,1796.694702 1392.731934,1794.351929 1392.562500,1792.030273 
	C1392.084961,1785.490845 1391.196655,1784.512451 1384.801880,1784.208740 
	C1380.145508,1783.987549 1375.470459,1784.119385 1370.804199,1784.156128 
	C1360.008423,1784.241089 1359.547119,1784.705322 1359.384521,1795.419800 
	C1359.349121,1797.752441 1359.375977,1800.086304 1359.375854,1802.419556 
	C1359.375610,1860.751587 1359.375610,1919.083740 1359.375610,1977.415771 
	C1359.375610,1980.971436 1359.375610,1984.527100 1359.375610,1988.712402 
	C1315.688599,1988.712402 1273.257324,1988.712402 1229.851807,1988.712402 
	C1229.851807,1984.564209 1229.851807,1980.979736 1229.851807,1977.395142 
	C1229.851807,1918.063110 1229.852539,1858.730957 1229.849365,1799.398926 
	C1229.849121,1796.732788 1229.856323,1794.065552 1229.786499,1791.400757 
	C1229.657471,1786.477295 1226.986694,1784.177002 1222.167847,1784.168823 
	C1217.501343,1784.160889 1212.834595,1784.126221 1208.168335,1784.156372 
	C1196.958618,1784.228638 1196.188965,1784.911377 1196.167969,1796.001831 
	C1196.114380,1824.334473 1196.148926,1852.667236 1196.148193,1883.000000 
M1494.057251,1829.083862 
	C1491.405029,1835.536499 1488.350586,1841.857300 1486.183350,1848.468994 
	C1481.461548,1862.874878 1480.658569,1877.900513 1480.632446,1892.896973 
	C1480.507080,1964.886963 1480.524292,2036.877563 1480.633545,2108.867676 
	C1480.649170,2119.182129 1480.919434,2129.549072 1481.971558,2139.799316 
	C1485.342041,2172.641602 1500.549805,2198.533936 1528.935059,2215.875000 
	C1548.989136,2228.126465 1571.319580,2231.519775 1594.349121,2229.569580 
	C1634.539185,2226.165771 1663.891968,2206.699951 1680.346924,2169.282715 
	C1687.464844,2153.097412 1688.668579,2135.861816 1688.653442,2118.425293 
	C1688.587646,2042.768799 1688.637451,1967.112427 1688.602173,1891.455933 
	C1688.599243,1885.126587 1688.599487,1878.769165 1688.046021,1872.473267 
	C1685.643433,1845.143921 1674.972046,1821.806641 1654.146118,1803.489136 
	C1635.531982,1787.117188 1613.456299,1780.244385 1589.056763,1779.430298 
	C1548.624146,1778.081299 1516.176758,1792.125244 1494.057251,1829.083862 
M2781.230713,1805.775269 
	C2773.614746,1800.474609 2766.440186,1794.336914 2758.295410,1790.038940 
	C2738.177246,1779.422974 2716.258545,1777.718018 2694.098145,1780.097534 
	C2657.801025,1783.994995 2631.394043,1802.532471 2615.587402,1835.568726 
	C2608.581543,1850.210938 2605.788818,1865.921631 2605.776611,1882.079956 
	C2605.715088,1963.734009 2605.677246,2045.388062 2605.831055,2127.041748 
	C2605.845459,2134.647461 2606.664551,2142.367920 2608.133301,2149.833496 
	C2613.373047,2176.468018 2626.616455,2198.045654 2649.510254,2213.282715 
	C2670.719482,2227.398438 2694.353027,2231.496338 2719.177490,2229.571777 
	C2753.604492,2226.903076 2780.729004,2211.489014 2798.905029,2181.652100 
	C2810.005859,2163.429688 2813.330322,2143.117432 2813.365234,2122.215820 
	C2813.495361,2043.894043 2813.490723,1965.571777 2813.377686,1887.250000 
	C2813.333252,1856.499878 2805.410645,1828.632080 2781.230713,1805.775269 
M1069.375244,1816.145996 
	C1030.864136,1880.076538 992.353149,1944.007080 953.842102,2007.937622 
	C953.040100,2007.707275 952.238037,2007.476929 951.436035,2007.246460 
	C951.436035,2003.736694 951.435974,2000.226807 951.435974,1996.716919 
	C951.435852,1931.079712 951.437866,1865.442627 951.434326,1799.805420 
	C951.433472,1784.146118 951.425049,1784.146118 936.284363,1784.137207 
	C935.284790,1784.136597 934.285278,1784.136719 933.285706,1784.137207 
	C917.981018,1784.144531 917.972473,1784.144531 917.972229,1799.627930 
	C917.969849,1936.233154 917.970398,2072.838379 917.972595,2209.443604 
	C917.972656,2212.108887 918.027649,2214.774170 918.012756,2217.439209 
	C917.985291,2222.367676 920.528015,2224.838135 925.340820,2224.923584 
	C931.335266,2225.029785 937.345215,2225.234619 943.324829,2224.931396 
	C949.628601,2224.611816 950.837463,2223.260986 951.353638,2217.140625 
	C951.576904,2214.492920 951.433716,2211.812988 951.433838,2209.147705 
	C951.436646,2162.835205 951.500488,2116.522461 951.355408,2070.210449 
	C951.336914,2064.323975 952.569824,2059.339355 955.932190,2054.357422 
	C968.037598,2036.421021 979.717041,2018.197021 991.599121,2000.109131 
	C993.333923,1997.468384 995.296326,1994.977173 997.912598,1991.369873 
	C999.892517,1995.528564 1001.378296,1998.393799 1002.646851,2001.352173 
	C1021.132507,2044.463013 1039.590088,2087.585693 1058.052490,2130.706543 
	C1070.229492,2159.147461 1082.374756,2187.601807 1094.615601,2216.014893 
	C1096.143311,2219.561035 1096.962158,2224.243652 1101.965088,2224.535400 
	C1111.794067,2225.109131 1121.707520,2226.287354 1132.971558,2223.124268 
	C1131.556396,2218.480469 1130.728271,2214.395020 1129.109375,2210.651611 
	C1094.512939,2130.658691 1059.926880,2050.660400 1024.986084,1970.817505 
	C1021.956238,1963.894043 1022.271057,1958.962280 1026.162109,1952.508667 
	C1056.753906,1901.769775 1086.928223,1850.779297 1117.225098,1799.862793 
	C1118.755981,1797.290161 1120.499634,1794.799561 1121.671631,1792.067993 
	C1123.838623,1787.017578 1122.322754,1784.514038 1116.668335,1784.244873 
	C1110.019287,1783.928467 1103.326660,1784.452271 1096.686646,1784.051880 
	C1090.911011,1783.703613 1087.238281,1786.194580 1084.463745,1790.892578 
	C1079.724487,1798.917480 1074.879639,1806.880249 1069.375244,1816.145996 
M2900.930176,2128.999268 
	C2900.930176,2155.988281 2900.921875,2182.977051 2900.933350,2209.966064 
	C2900.939697,2225.037842 2900.954590,2225.062256 2915.790283,2225.065430 
	C2968.435059,2225.076660 3021.080078,2225.070801 3073.724854,2225.069092 
	C3090.249268,2225.068604 3090.249268,2225.065430 3090.212646,2208.655029 
	C3090.183105,2195.390869 3090.183105,2195.356689 3076.841309,2195.351318 
	C3033.525879,2195.334473 2990.210693,2195.358398 2946.895264,2195.322266 
	C2942.999512,2195.319092 2939.104248,2194.995850 2934.212158,2194.776611 
	C2934.212158,2189.945557 2934.212158,2186.038086 2934.212158,2182.130859 
	C2934.212158,2055.183350 2934.185303,1928.235962 2934.241455,1801.288574 
	C2934.250000,1782.254883 2934.433350,1784.133911 2916.686035,1784.125854 
	C2900.942871,1784.118652 2900.932617,1784.129517 2900.932129,1800.134521 
	C2900.928955,1909.089478 2900.930420,2018.044312 2900.930176,2128.999268 
M2177.444336,1851.001221 
	C2177.606934,1838.828369 2177.087158,1826.625732 2177.812500,1813.869995 
	C2182.320801,1813.869995 2185.600586,1813.869995 2188.880615,1813.869873 
	C2211.202148,1813.869629 2233.523438,1813.871582 2255.844971,1813.865967 
	C2258.176514,1813.865356 2260.510498,1813.882812 2262.838867,1813.784058 
	C2267.172607,1813.600220 2269.693359,1811.401733 2269.779297,1806.961548 
	C2269.882568,1801.633911 2269.859375,1796.302246 2269.795898,1790.973511 
	C2269.742676,1786.520508 2267.367676,1784.269165 2262.937500,1784.192261 
	C2260.273193,1784.145996 2257.607666,1784.133057 2254.942871,1784.132935 
	C2194.641602,1784.129639 2134.340576,1784.116577 2074.039307,1784.138306 
	C2056.596191,1784.144653 2055.818115,1781.737183 2056.130371,1802.085327 
	C2056.295410,1812.844360 2057.237793,1813.829102 2068.376465,1813.853882 
	C2090.364746,1813.903076 2112.353027,1813.848633 2134.341309,1813.896606 
	C2137.226807,1813.902954 2140.112061,1814.258545 2143.964111,1814.517334 
	C2143.964111,1819.038696 2143.963867,1822.959473 2143.963867,1826.880249 
	C2143.963867,1953.812622 2143.965088,2080.744873 2143.962646,2207.677246 
	C2143.962402,2224.420166 2142.171387,2225.259521 2161.551514,2225.086182 
	C2177.433838,2224.944092 2177.442627,2225.050049 2177.442871,2208.811523 
	C2177.445312,2090.208008 2177.444336,1971.604614 2177.444336,1851.001221 
z"/>
<path fill="#FAFAFA" opacity="1.000000" stroke="none" 
	d="
M1776.141479,1874.000000 
	C1776.142334,1847.336426 1776.105835,1821.672852 1776.161499,1796.009399 
	C1776.185547,1784.903687 1776.949585,1784.064209 1788.147339,1784.178833 
	C1812.523193,1784.428223 1808.081177,1780.614746 1817.239136,1803.734009 
	C1859.637085,1910.766602 1901.849487,2017.872681 1944.143799,2124.946533 
	C1945.550659,2128.508301 1947.124268,2132.003906 1949.138428,2136.752441 
	C1952.437988,2131.930420 1951.304932,2127.913574 1951.308228,2124.252930 
	C1951.384766,2037.263550 1951.367554,1950.274048 1951.367798,1863.284668 
	C1951.367920,1840.954102 1951.331177,1818.623291 1951.385376,1796.292847 
	C1951.414185,1784.416992 1951.714355,1784.190308 1963.917969,1784.144897 
	C1967.917480,1784.129883 1971.925049,1783.989990 1975.914673,1784.190430 
	C1982.167603,1784.504517 1983.475342,1785.809326 1983.980469,1791.850708 
	C1984.146606,1793.837158 1984.022949,1795.848145 1984.022949,1797.847900 
	C1984.024292,1935.497925 1984.024414,2073.147949 1984.024536,2210.797852 
	C1984.024536,2212.131104 1984.057129,2213.465088 1984.017700,2214.797119 
	C1983.757324,2223.594727 1982.792114,2224.692627 1974.293213,2224.997803 
	C1969.300293,2225.177246 1964.291382,2224.902344 1959.297363,2225.067871 
	C1953.150269,2225.271240 1949.722778,2222.643066 1947.448242,2216.716309 
	C1937.196411,2190.003174 1926.487427,2163.466064 1915.979248,2136.851074 
	C1882.498657,2052.052979 1849.038452,1967.246704 1815.545776,1882.453369 
	C1814.371704,1879.480835 1812.936768,1876.611328 1809.599731,1873.743530 
	C1809.421875,1877.049683 1809.083862,1880.356201 1809.089478,1883.662109 
	C1809.217285,1959.652710 1809.388550,2035.643433 1809.537354,2111.634033 
	C1809.602051,2144.629883 1809.637329,2177.625977 1809.675415,2210.621826 
	C1809.678467,2213.286865 1809.687988,2215.956543 1809.538086,2218.615479 
	C1809.345093,2222.036865 1807.600098,2224.487061 1804.076172,2224.605469 
	C1796.764771,2224.850342 1789.438232,2224.865234 1782.123901,2224.703857 
	C1778.660645,2224.627686 1776.633667,2222.376709 1776.370972,2218.948242 
	C1776.116821,2215.632568 1776.149780,2212.290771 1776.149414,2208.960449 
	C1776.139771,2097.640381 1776.141479,1986.320190 1776.141479,1874.000000 
z"/>
<path fill="#F9F9F9" opacity="1.000000" stroke="none" 
	d="
M2342.289062,2218.652588 
	C2342.176025,2076.845703 2342.148438,1935.923950 2342.150635,1795.002319 
	C2342.150879,1783.820923 2342.929199,1782.978027 2354.042480,1782.982300 
	C2386.021973,1782.994873 2418.010498,1782.698730 2449.978760,1783.346924 
	C2491.527344,1784.189331 2517.950195,1807.142212 2533.701660,1843.732788 
	C2544.631348,1869.122314 2545.839600,1895.960693 2542.789795,1923.164062 
	C2540.640137,1942.338013 2534.810791,1960.161987 2524.213135,1976.328613 
	C2513.489502,1992.687256 2499.162109,2004.639404 2480.708008,2011.457764 
	C2479.153076,2012.032227 2477.614502,2012.664185 2476.116211,2013.371094 
	C2475.542236,2013.641846 2475.102783,2014.197754 2473.720215,2015.374146 
	C2485.874512,2049.654053 2498.188965,2084.308838 2510.448730,2118.983398 
	C2522.595947,2153.340820 2535.432861,2187.465820 2547.135254,2223.060547 
	C2536.344482,2226.245361 2526.830811,2225.397949 2517.403320,2224.192383 
	C2512.566895,2223.573975 2511.900146,2218.837646 2510.623047,2215.159424 
	C2501.680420,2189.397949 2492.835449,2163.602539 2483.956543,2137.819336 
	C2471.071045,2100.400146 2458.197266,2062.977051 2445.285889,2025.567017 
	C2442.373291,2017.127808 2442.311523,2017.085205 2433.352295,2017.064087 
	C2414.730225,2017.020020 2396.107910,2017.050903 2376.258057,2017.050903 
	C2376.110596,2021.241821 2375.881592,2024.744995 2375.880371,2028.248291 
	C2375.858398,2088.881348 2375.868164,2149.514404 2375.861816,2210.147461 
	C2375.860352,2224.924072 2375.745117,2225.030518 2360.729492,2225.043945 
	C2357.065918,2225.047363 2353.398682,2225.072266 2349.740234,2224.917480 
	C2346.159180,2224.765869 2343.209961,2223.550537 2342.289062,2218.652588 
M2413.000977,1813.037964 
	C2407.003906,1813.037964 2401.001953,1812.881470 2395.011475,1813.081299 
	C2388.846436,1813.287109 2382.525635,1812.068481 2376.390381,1814.177612 
	C2376.390381,1872.595215 2376.390381,1930.410400 2376.390381,1988.179810 
	C2377.796387,1988.663452 2378.710693,1989.252319 2379.625244,1989.252197 
	C2401.611084,1989.250977 2423.606201,1989.563843 2445.580566,1989.036133 
	C2471.602539,1988.411377 2488.914307,1974.190430 2500.438232,1951.877808 
	C2508.103760,1937.036133 2510.530029,1920.974121 2510.708740,1904.509155 
	C2510.909424,1886.042480 2508.979248,1867.922607 2500.428955,1851.129517 
	C2488.861084,1828.410278 2471.512207,1814.063721 2444.972900,1813.358276 
	C2434.986328,1813.092773 2424.991455,1813.135742 2413.000977,1813.037964 
z"/>
<path fill="#FBFBFB" opacity="1.000000" stroke="none" 
	d="
M1196.148193,1882.000000 
	C1196.148926,1852.667236 1196.114380,1824.334473 1196.167969,1796.001831 
	C1196.188965,1784.911377 1196.958618,1784.228638 1208.168335,1784.156372 
	C1212.834595,1784.126221 1217.501343,1784.160889 1222.167847,1784.168823 
	C1226.986694,1784.177002 1229.657471,1786.477295 1229.786499,1791.400757 
	C1229.856323,1794.065552 1229.849121,1796.732788 1229.849365,1799.398926 
	C1229.852539,1858.730957 1229.851807,1918.063110 1229.851807,1977.395142 
	C1229.851807,1980.979736 1229.851807,1984.564209 1229.851807,1988.712402 
	C1273.257324,1988.712402 1315.688599,1988.712402 1359.375610,1988.712402 
	C1359.375610,1984.527100 1359.375610,1980.971436 1359.375610,1977.415771 
	C1359.375610,1919.083740 1359.375610,1860.751587 1359.375854,1802.419556 
	C1359.375977,1800.086304 1359.349121,1797.752441 1359.384521,1795.419800 
	C1359.547119,1784.705322 1360.008423,1784.241089 1370.804199,1784.156128 
	C1375.470459,1784.119385 1380.145508,1783.987549 1384.801880,1784.208740 
	C1391.196655,1784.512451 1392.084961,1785.490845 1392.562500,1792.030273 
	C1392.731934,1794.351929 1392.622314,1796.694702 1392.622314,1799.027832 
	C1392.624146,1936.024902 1392.626099,2073.021973 1392.621704,2210.019043 
	C1392.621216,2225.007568 1392.603516,2225.022461 1377.727295,2225.021729 
	C1373.730347,2225.021484 1369.728394,2225.003662 1365.738037,2224.805908 
	C1361.821777,2224.612061 1359.618530,2222.507324 1359.525391,2218.468994 
	C1359.456421,2215.471191 1359.382202,2212.472168 1359.381836,2209.473877 
	C1359.373535,2150.141846 1359.375610,2090.809570 1359.375610,2031.477539 
	C1359.375610,2027.867065 1359.375610,2024.256470 1359.375610,2020.921021 
	C1351.537109,2018.671143 1242.648804,2018.131104 1229.851807,2020.247070 
	C1229.851807,2023.551270 1229.851807,2027.093506 1229.851807,2030.635742 
	C1229.851807,2089.634521 1229.851929,2148.633057 1229.851807,2207.631836 
	C1229.851807,2209.965088 1229.905640,2212.300049 1229.839844,2214.631592 
	C1229.593628,2223.358643 1228.477783,2224.676270 1220.150757,2224.972900 
	C1214.494629,2225.174316 1208.820312,2225.022461 1203.158691,2224.866211 
	C1198.812622,2224.746338 1196.402710,2222.394287 1196.245972,2217.990723 
	C1196.139282,2214.994141 1196.151978,2211.992676 1196.151855,2208.993408 
	C1196.147583,2100.328857 1196.148193,1991.664429 1196.148193,1882.000000 
z"/>
<path fill="#FBFBFB" opacity="1.000000" stroke="none" 
	d="
M1494.430420,1828.452271 
	C1516.176758,1792.125244 1548.624146,1778.081299 1589.056763,1779.430298 
	C1613.456299,1780.244385 1635.531982,1787.117188 1654.146118,1803.489136 
	C1674.972046,1821.806641 1685.643433,1845.143921 1688.046021,1872.473267 
	C1688.599487,1878.769165 1688.599243,1885.126587 1688.602173,1891.455933 
	C1688.637451,1967.112427 1688.587646,2042.768799 1688.653442,2118.425293 
	C1688.668579,2135.861816 1687.464844,2153.097412 1680.346924,2169.282715 
	C1663.891968,2206.699951 1634.539185,2226.165771 1594.349121,2229.569580 
	C1571.319580,2231.519775 1548.989136,2228.126465 1528.935059,2215.875000 
	C1500.549805,2198.533936 1485.342041,2172.641602 1481.971558,2139.799316 
	C1480.919434,2129.549072 1480.649170,2119.182129 1480.633545,2108.867676 
	C1480.524292,2036.877563 1480.507080,1964.886963 1480.632446,1892.896973 
	C1480.658569,1877.900513 1481.461548,1862.874878 1486.183350,1848.468994 
	C1488.350586,1841.857300 1491.405029,1835.536499 1494.430420,1828.452271 
M1514.177368,1999.000000 
	C1514.177368,2037.968750 1514.159180,2076.937500 1514.196655,2115.906250 
	C1514.202393,2121.897705 1514.210938,2127.907959 1514.649902,2133.877686 
	C1517.580078,2173.720703 1547.850464,2203.478027 1590.500122,2199.898438 
	C1618.673340,2197.533936 1638.304321,2183.242920 1649.338989,2157.309326 
	C1654.517944,2145.137695 1655.367065,2132.141602 1655.372192,2119.101807 
	C1655.401978,2044.161987 1655.406738,1969.222290 1655.352173,1894.282471 
	C1655.347534,1887.965454 1654.940063,1881.642944 1654.556519,1875.332886 
	C1652.513550,1841.717285 1627.752319,1810.129395 1587.686890,1808.916016 
	C1563.383057,1808.179932 1543.429199,1816.430420 1528.719482,1836.192383 
	C1517.687866,1851.012451 1514.209717,1868.065674 1514.193359,1886.089111 
	C1514.160034,1923.059448 1514.179565,1960.029663 1514.177368,1999.000000 
z"/>
<path fill="#FBFBFB" opacity="1.000000" stroke="none" 
	d="
M2781.765381,1806.239990 
	C2805.410645,1828.632080 2813.333252,1856.499878 2813.377686,1887.250000 
	C2813.490723,1965.571777 2813.495361,2043.894043 2813.365234,2122.215820 
	C2813.330322,2143.117432 2810.005859,2163.429688 2798.905029,2181.652100 
	C2780.729004,2211.489014 2753.604492,2226.903076 2719.177490,2229.571777 
	C2694.353027,2231.496338 2670.719482,2227.398438 2649.510254,2213.282715 
	C2626.616455,2198.045654 2613.373047,2176.468018 2608.133301,2149.833496 
	C2606.664551,2142.367920 2605.845459,2134.647461 2605.831055,2127.041748 
	C2605.677246,2045.388062 2605.715088,1963.734009 2605.776611,1882.079956 
	C2605.788818,1865.921631 2608.581543,1850.210938 2615.587402,1835.568726 
	C2631.394043,1802.532471 2657.801025,1783.994995 2694.098145,1780.097534 
	C2716.258545,1777.718018 2738.177246,1779.422974 2758.295410,1790.038940 
	C2766.440186,1794.336914 2773.614746,1800.474609 2781.765381,1806.239990 
M2685.936523,1812.101562 
	C2664.118408,1820.073975 2649.274902,1835.171509 2643.084961,1857.391724 
	C2640.004395,1868.449097 2638.855225,1880.359253 2638.799316,1891.893188 
	C2638.435791,1966.848999 2638.571777,2041.807373 2638.675049,2116.764893 
	C2638.685791,2124.404297 2639.175537,2132.090576 2640.108154,2139.673340 
	C2643.885010,2170.371582 2664.840820,2193.524414 2695.177246,2198.904297 
	C2728.241211,2204.768066 2756.695068,2191.408447 2771.644775,2162.859375 
	C2778.289307,2150.170654 2779.828613,2136.264160 2779.826660,2122.130859 
	C2779.814697,2043.841919 2779.825195,1965.552856 2779.802734,1887.263916 
	C2779.801758,1883.602539 2779.708252,1879.929199 2779.408447,1876.281860 
	C2778.214844,1861.751587 2774.277100,1848.140381 2765.337891,1836.351318 
	C2747.249023,1812.494385 2719.102783,1803.628418 2685.936523,1812.101562 
z"/>
<path fill="#F9F9F9" opacity="1.000000" stroke="none" 
	d="
M1069.727295,1815.507568 
	C1074.879639,1806.880249 1079.724487,1798.917480 1084.463745,1790.892578 
	C1087.238281,1786.194580 1090.911011,1783.703613 1096.686646,1784.051880 
	C1103.326660,1784.452271 1110.019287,1783.928467 1116.668335,1784.244873 
	C1122.322754,1784.514038 1123.838623,1787.017578 1121.671631,1792.067993 
	C1120.499634,1794.799561 1118.755981,1797.290161 1117.225098,1799.862793 
	C1086.928223,1850.779297 1056.753906,1901.769775 1026.162109,1952.508667 
	C1022.271057,1958.962280 1021.956238,1963.894043 1024.986084,1970.817505 
	C1059.926880,2050.660400 1094.512939,2130.658691 1129.109375,2210.651611 
	C1130.728271,2214.395020 1131.556396,2218.480469 1132.971558,2223.124268 
	C1121.707520,2226.287354 1111.794067,2225.109131 1101.965088,2224.535400 
	C1096.962158,2224.243652 1096.143311,2219.561035 1094.615601,2216.014893 
	C1082.374756,2187.601807 1070.229492,2159.147461 1058.052490,2130.706543 
	C1039.590088,2087.585693 1021.132507,2044.463013 1002.646851,2001.352173 
	C1001.378296,1998.393799 999.892517,1995.528564 997.912598,1991.369873 
	C995.296326,1994.977173 993.333923,1997.468384 991.599121,2000.109131 
	C979.717041,2018.197021 968.037598,2036.421021 955.932190,2054.357422 
	C952.569824,2059.339355 951.336914,2064.323975 951.355408,2070.210449 
	C951.500488,2116.522461 951.436646,2162.835205 951.433838,2209.147705 
	C951.433716,2211.812988 951.576904,2214.492920 951.353638,2217.140625 
	C950.837463,2223.260986 949.628601,2224.611816 943.324829,2224.931396 
	C937.345215,2225.234619 931.335266,2225.029785 925.340820,2224.923584 
	C920.528015,2224.838135 917.985291,2222.367676 918.012756,2217.439209 
	C918.027649,2214.774170 917.972656,2212.108887 917.972595,2209.443604 
	C917.970398,2072.838379 917.969849,1936.233154 917.972229,1799.627930 
	C917.972473,1784.144531 917.981018,1784.144531 933.285706,1784.137207 
	C934.285278,1784.136719 935.284790,1784.136597 936.284363,1784.137207 
	C951.425049,1784.146118 951.433472,1784.146118 951.434326,1799.805420 
	C951.437866,1865.442627 951.435852,1931.079712 951.435974,1996.716919 
	C951.435974,2000.226807 951.436035,2003.736694 951.436035,2007.246460 
	C952.238037,2007.476929 953.040100,2007.707275 953.842102,2007.937622 
	C992.353149,1944.007080 1030.864136,1880.076538 1069.727295,1815.507568 
z"/>
<path fill="#F7F7F7" opacity="1.000000" stroke="none" 
	d="
M2900.930176,2127.999268 
	C2900.930420,2018.044312 2900.928955,1909.089478 2900.932129,1800.134521 
	C2900.932617,1784.129517 2900.942871,1784.118652 2916.686035,1784.125854 
	C2934.433350,1784.133911 2934.250000,1782.254883 2934.241455,1801.288574 
	C2934.185303,1928.235962 2934.212158,2055.183350 2934.212158,2182.130859 
	C2934.212158,2186.038086 2934.212158,2189.945557 2934.212158,2194.776611 
	C2939.104248,2194.995850 2942.999512,2195.319092 2946.895264,2195.322266 
	C2990.210693,2195.358398 3033.525879,2195.334473 3076.841309,2195.351318 
	C3090.183105,2195.356689 3090.183105,2195.390869 3090.212646,2208.655029 
	C3090.249268,2225.065430 3090.249268,2225.068604 3073.724854,2225.069092 
	C3021.080078,2225.070801 2968.435059,2225.076660 2915.790283,2225.065430 
	C2900.954590,2225.062256 2900.939697,2225.037842 2900.933350,2209.966064 
	C2900.921875,2182.977051 2900.930176,2155.988281 2900.930176,2127.999268 
z"/>
<path fill="#F8F8F8" opacity="1.000000" stroke="none" 
	d="
M2177.444336,1852.001221 
	C2177.444336,1971.604614 2177.445312,2090.208008 2177.442871,2208.811523 
	C2177.442627,2225.050049 2177.433838,2224.944092 2161.551514,2225.086182 
	C2142.171387,2225.259521 2143.962402,2224.420166 2143.962646,2207.677246 
	C2143.965088,2080.744873 2143.963867,1953.812622 2143.963867,1826.880249 
	C2143.963867,1822.959473 2143.964111,1819.038696 2143.964111,1814.517334 
	C2140.112061,1814.258545 2137.226807,1813.902954 2134.341309,1813.896606 
	C2112.353027,1813.848633 2090.364746,1813.903076 2068.376465,1813.853882 
	C2057.237793,1813.829102 2056.295410,1812.844360 2056.130371,1802.085327 
	C2055.818115,1781.737183 2056.596191,1784.144653 2074.039307,1784.138306 
	C2134.340576,1784.116577 2194.641602,1784.129639 2254.942871,1784.132935 
	C2257.607666,1784.133057 2260.273193,1784.145996 2262.937500,1784.192261 
	C2267.367676,1784.269165 2269.742676,1786.520508 2269.795898,1790.973511 
	C2269.859375,1796.302246 2269.882568,1801.633911 2269.779297,1806.961548 
	C2269.693359,1811.401733 2267.172607,1813.600220 2262.838867,1813.784058 
	C2260.510498,1813.882812 2258.176514,1813.865356 2255.844971,1813.865967 
	C2233.523438,1813.871582 2211.202148,1813.869629 2188.880615,1813.869873 
	C2185.600586,1813.869995 2182.320801,1813.869995 2177.812500,1813.869995 
	C2177.087158,1826.625732 2177.606934,1838.828369 2177.444336,1852.001221 
z"/>
<path fill="#111111" opacity="1.000000" stroke="none" 
	d="
M2414.000732,1813.037964 
	C2424.991455,1813.135742 2434.986328,1813.092773 2444.972900,1813.358276 
	C2471.512207,1814.063721 2488.861084,1828.410278 2500.428955,1851.129517 
	C2508.979248,1867.922607 2510.909424,1886.042480 2510.708740,1904.509155 
	C2510.530029,1920.974121 2508.103760,1937.036133 2500.438232,1951.877808 
	C2488.914307,1974.190430 2471.602539,1988.411377 2445.580566,1989.036133 
	C2423.606201,1989.563843 2401.611084,1989.250977 2379.625244,1989.252197 
	C2378.710693,1989.252319 2377.796387,1988.663452 2376.390381,1988.179810 
	C2376.390381,1930.410400 2376.390381,1872.595215 2376.390381,1814.177612 
	C2382.525635,1812.068481 2388.846436,1813.287109 2395.011475,1813.081299 
	C2401.001953,1812.881470 2407.003906,1813.037964 2414.000732,1813.037964 
z"/>
<path fill="#111111" opacity="1.000000" stroke="none" 
	d="
M1514.177368,1998.000000 
	C1514.179565,1960.029663 1514.160034,1923.059448 1514.193359,1886.089111 
	C1514.209717,1868.065674 1517.687866,1851.012451 1528.719482,1836.192383 
	C1543.429199,1816.430420 1563.383057,1808.179932 1587.686890,1808.916016 
	C1627.752319,1810.129395 1652.513550,1841.717285 1654.556519,1875.332886 
	C1654.940063,1881.642944 1655.347534,1887.965454 1655.352173,1894.282471 
	C1655.406738,1969.222290 1655.401978,2044.161987 1655.372192,2119.101807 
	C1655.367065,2132.141602 1654.517944,2145.137695 1649.338989,2157.309326 
	C1638.304321,2183.242920 1618.673340,2197.533936 1590.500122,2199.898438 
	C1547.850464,2203.478027 1517.580078,2173.720703 1514.649902,2133.877686 
	C1514.210938,2127.907959 1514.202393,2121.897705 1514.196655,2115.906250 
	C1514.159180,2076.937500 1514.177368,2037.968750 1514.177368,1998.000000 
z"/>
<path fill="#111111" opacity="1.000000" stroke="none" 
	d="
M2686.746826,1811.930176 
	C2719.102783,1803.628418 2747.249023,1812.494385 2765.337891,1836.351318 
	C2774.277100,1848.140381 2778.214844,1861.751587 2779.408447,1876.281860 
	C2779.708252,1879.929199 2779.801758,1883.602539 2779.802734,1887.263916 
	C2779.825195,1965.552856 2779.814697,2043.841919 2779.826660,2122.130859 
	C2779.828613,2136.264160 2778.289307,2150.170654 2771.644775,2162.859375 
	C2756.695068,2191.408447 2728.241211,2204.768066 2695.177246,2198.904297 
	C2664.840820,2193.524414 2643.885010,2170.371582 2640.108154,2139.673340 
	C2639.175537,2132.090576 2638.685791,2124.404297 2638.675049,2116.764893 
	C2638.571777,2041.807373 2638.435791,1966.848999 2638.799316,1891.893188 
	C2638.855225,1880.359253 2640.004395,1868.449097 2643.084961,1857.391724 
	C2649.274902,1835.171509 2664.118408,1820.073975 2686.746826,1811.930176 
z"/>
</svg>