<?xml version="1.0" standalone="no"?>
<!DOCTYPE svg PUBLIC "-//W3C//DTD SVG 20010904//EN"
 "http://www.w3.org/TR/2001/REC-SVG-20010904/DTD/svg10.dtd">
<svg version="1.0" xmlns="http://www.w3.org/2000/svg"
 width="75.000000pt" height="75.000000pt" viewBox="0 0 75.000000 75.000000"
 preserveAspectRatio="xMidYMid meet">

<g transform="translate(0.000000,75.000000) scale(0.100000,-0.100000)"
fill="#000000" stroke="none">
<path d="M121 397 c-6 -6 -11 -21 -11 -34 l0 -23 270 0 c289 0 297 2 248 47
-22 21 -33 21 -260 21 -156 0 -240 -4 -247 -11z m29 -8 c0 -7 5 -8 13 -3 15
11 38 11 55 1 6 -5 12 -4 12 1 0 5 33 8 73 8 62 -1 72 -4 72 -18 0 -10 -4 -17
-10 -15 -5 1 -9 7 -7 12 1 6 -3 3 -10 -5 -14 -17 -128 -24 -128 -8 0 5 -5 6
-12 2 -6 -4 -29 -8 -50 -9 -30 -2 -38 2 -38 15 0 9 3 20 7 23 10 11 23 8 23
-4z m450 -6 c0 -7 7 -13 15 -13 8 0 15 -4 15 -10 0 -5 -39 -9 -95 -7 -77 2
-95 5 -95 17 -1 11 -4 10 -15 -4 -16 -21 -27 -16 -31 12 -3 15 8 17 101 17 77
0 105 -3 105 -12z"/>
</g>
</svg>
